<?xml version="1.0" encoding="UTF-8"?><svg id="_레이어_1" xmlns="http://www.w3.org/2000/svg" viewBox="0 0 58.34 19.78"><defs><style>.cls-1,.cls-2{stroke-width:0px;}.cls-2{fill:#fff;}</style></defs><path class="cls-2" d="m56.67,15.15c1.43-4.38,1.99-9.94-2.03-13.26-3.03-2.49-7.75-2.5-10.93-.16-2.76,2.04-4.02,4.28-4.9,7.56-.43,1.6-1.26,6.8-.73,9.99.02.13.15.22.28.2,1.35-.19,3.31-.43,8.17-.4s7.05.09,10.91.27c.12,0,.23-.08.25-.2.17-.88.48-2.68.39-3.59-.01-.12-.12-.21-.24-.21l-1.17-.2Z"/><path class="cls-1" d="m47.66,10.58s-.02-.01-.02-.02c.01.01.02.02.05.05-.02-.03-.05-.05-.07-.07-.06-.07-.12-.14-.18-.21-.14-.18-.27-.36-.39-.55-.01-.02-.02-.03-.03-.05-.02-.04-.05-.07-.07-.11-.06-.09-.12-.19-.17-.28-.06-.11-.12-.22-.17-.34-.13-.29-.42-.47-.75-.41-.24.05-.41.21-.55.4-.22.27-.38.6-.55.9-.1.18-.2.36-.3.53-.04.07-.08.14-.13.21-.02.03-.04.05-.06.08,0,.01-.02.02-.03.03-.02.03,0,0,.04-.03-.2.22-.26.57-.04.81.21.22.61.31.85.07.23-.23.38-.52.54-.8.1-.18.21-.36.31-.54.06.09.13.19.19.28.24.36.51.78.87,1.04.26.18.66.13.84-.15.17-.27.13-.64-.15-.84Z"/><path class="cls-1" d="m47.64,10.56c-.05-.06-.04-.03,0,0h0Z"/><path class="cls-1" d="m44.32,4.58c-.42.93-.75,1.88-.95,2.88-.04.18.07.42.18.55.12.14.33.26.52.26s.4-.04.55-.18c.16-.14.22-.31.26-.52,0-.03.01-.07.02-.1.02-.08.01-.07-.01.05-.01-.03.03-.12.04-.15.03-.12.06-.23.09-.35.06-.22.13-.43.21-.64.15-.44.33-.86.52-1.29.16-.36-.08-.85-.45-.97-.41-.13-.8.06-.97.45h0Z"/><path class="cls-1" d="m48.58,4.52c-.27.44-.48.91-.64,1.4-.14.44-.24.89-.35,1.34-.05.2-.06.39.03.59.08.16.25.33.42.38.36.11.86-.04.97-.45.11-.43.21-.87.34-1.29.06-.21.13-.41.22-.61.04-.1.09-.2.14-.3.03-.05.01-.03-.04.07.02-.03.03-.06.05-.08.03-.06.07-.11.1-.17.21-.34.17-.83-.19-1.05-.33-.21-.83-.17-1.05.19h0Z"/><path class="cls-2" d="m44.6,4.65c-.08.14-.16.28-.21.44,0,.03,0,.07.02.09.02.02.05.05.08.05s.06,0,.09-.02c.03-.02.04-.04.05-.08,0,0,0-.01,0-.02,0-.01,0-.01,0,0,0,0,0-.02,0-.02,0-.02.01-.04.02-.05.01-.03.03-.07.04-.1.03-.07.07-.13.11-.19.03-.05,0-.14-.05-.16-.06-.03-.13,0-.16.05h0Z"/><path class="cls-2" d="m48.75,4.79c-.08.14-.16.28-.21.44,0,.03,0,.07.02.09.02.02.05.05.08.05s.06,0,.09-.02c.03-.02.04-.04.05-.08,0,0,0-.01,0-.02,0-.01,0-.01,0,0,0,0,0-.02,0-.02,0-.02.01-.04.02-.05.01-.03.03-.07.04-.1.03-.07.07-.13.11-.19.03-.05,0-.14-.05-.16-.06-.03-.13,0-.16.05h0Z"/><path class="cls-2" d="m31.39,12.52c-.45-.4-1.02-.48-1.51-.08-.43.35-.46.82-.45,1.32,0,.38,0,.76-.02,1.14,0,.18-.02.37-.04.55,0,.08-.02.16-.03.24,0,.04-.02.1-.02.09-.05.2-.11.4-.19.6,0,.02-.02.05-.03.09,0,0-.01.01-.02.02-.06.11-.12.21-.19.31-.05.08-.11.15-.16.22-.02.03-.05.06-.07.08-.03.03-.09.11-.15.16-.01,0-.03.01-.06.02-.05.02-.1.05-.14.07-.03,0-.07.02-.1.03-.05.01-.15.04-.23.06-.02,0-.04,0-.07,0-.01,0-.07,0-.12,0,0,0-.01,0-.02,0-.06-.02-.12-.04-.18-.06-.03-.01-.08-.03-.12-.05,0,0-.02-.01-.03-.02-.1-.06-.2-.12-.3-.19-.05-.03-.09-.07-.14-.1-.02-.01-.02-.01-.03-.02-.07-.07-.17-.19-.18-.2-.01-.01-.05-.05-.07-.09,0,0,0,0,0-.02-.06-.11-.12-.21-.17-.33-.02-.04-.03-.09-.05-.13,0,0,0,0,0,0-.04-.13-.08-.26-.11-.39-.07-.29-.12-.59-.16-.89,0-.07-.02-.14-.02-.21,0-.03,0-.06,0-.08-.01-.11-.02-.23-.03-.34,0,0-.01-.15-.02-.19-.02-.29-.02-.57-.04-.86-.02-.27-.05-.54-.25-.75-.18-.2-.49-.34-.75-.26-.83.24-.86,1.29-.94,2.02-.07.67-.03,1.36.05,2.03.16,1.3.95,2.42,2.11,3.03.7.37,1.43.53,2.22.38.63-.12,1.24-.41,1.68-.87.84-.88,1.33-1.96,1.46-3.17.05-.49.06-.98.06-1.47,0-.57.08-1.28-.38-1.69Zm-4.37,4.47s.05.04.05.04c0,0-.02-.01-.05-.04Zm.79.43s-.05,0-.05,0c0,0,.02,0,.05,0Zm.08.02s.01,0,0,0h0Zm.54-.12s.04-.02.07-.04c-.02.02-.05.03-.07.04Z"/><path class="cls-2" d="m24.3,8.76c.44.4,1.02.49,1.5.09.43-.35.46-.82.47-1.32,0-.38,0-.76.03-1.14,0-.18.02-.37.04-.55,0-.08.02-.16.03-.24,0-.04.02-.1.02-.09.05-.2.12-.4.2-.59,0-.02.02-.05.03-.09,0,0,.01-.01.02-.02.06-.11.12-.21.19-.31.05-.07.11-.14.16-.22.02-.03.05-.06.07-.08.03-.03.09-.1.15-.16.01,0,.03-.01.06-.02.05-.02.1-.04.14-.07.03,0,.07-.02.1-.03.05-.01.15-.04.23-.06.02,0,.04,0,.07,0,.01,0,.07,0,.12,0,0,0,.01,0,.02,0,.06.02.12.04.18.06.03.01.08.03.12.05,0,0,.02.01.03.02.1.06.2.12.29.19.05.03.09.07.14.1.02.01.02.01.03.02.07.07.17.19.18.2.01.01.05.05.07.09,0,0,0,0,0,.02.06.11.12.22.16.33.02.04.03.09.05.13,0,0,0,0,0,0,.04.13.08.26.1.39.07.29.11.59.15.89,0,.07.01.14.02.21,0,.03,0,.06,0,.08,0,.11.02.23.03.34,0,0,.01.15.02.19.02.29,0,.57.03.86.02.27.05.54.24.75.18.2.49.34.75.27.83-.23.88-1.28.97-2.01.08-.67.05-1.36-.03-2.03-.15-1.3-.93-2.43-2.08-3.06-.7-.38-1.43-.54-2.22-.4-.63.11-1.24.4-1.69.85-.85.87-1.35,1.95-1.49,3.15-.06.49-.07.98-.08,1.47,0,.57-.1,1.28.37,1.7Zm4.42-4.42s-.05-.04-.05-.04c0,0,.02.01.05.04Zm-.78-.44s.05,0,.05,0c0,0-.02,0-.05,0Zm-.08-.02s-.01,0,0,0h0Zm-.55.12s-.04.02-.07.04c.02-.02.05-.03.07-.04Z"/><path class="cls-2" d="m35.09,15.18c0-.5-.03-.98-.09-1.47-.07-.5-.12-1.02-.35-1.47-.27-.54-1.22-.58-1.48,0-.4.89-.39,1.98-.41,2.95-.03,1.12-.06,2.58-.02,3.38s.58,1.2,1.17,1.17c.69-.03,1.1-.52,1.17-1.17.11-1.12.03-2.25.01-3.38Z"/><path class="cls-2" d="m33.9,11.1c1.75,0,1.75-2.72,0-2.72s-1.75,2.72,0,2.72Z"/><path class="cls-2" d="m7.55,6.22c0-.24.04-1.06.05-1.24.03-.49.01-.98-.01-1.47-.03-.57.02-1.28-.47-1.67-.47-.37-1.04-.42-1.51,0-.41.37-.41.85-.38,1.34.02.38.04.76.04,1.14,0,.18,0,.37,0,.55,0,.08,0,.16-.02.24,0,.04-.01.1-.01.09-.04.21-.09.41-.16.61,0,.02-.02.05-.03.09,0,0,0,.01-.01.02-.06.11-.11.22-.17.32-.05.08-.1.15-.15.23-.02.03-.05.06-.06.08-.03.04-.09.11-.14.17-.01,0-.03.01-.05.03-.05.02-.09.05-.14.08-.03,0-.06.02-.1.03-.05.01-.14.05-.22.07-.02,0-.04,0-.07,0-.01,0-.07,0-.12,0,0,0-.01,0-.02,0-.06-.02-.12-.03-.18-.05-.03,0-.08-.02-.12-.04,0,0-.02-.01-.03-.02-.1-.06-.21-.11-.31-.17-.05-.03-.1-.06-.14-.1-.02-.01-.02-.01-.03-.02-.07-.06-.18-.18-.19-.19-.01-.01-.05-.05-.08-.08,0,0,0,0,0-.02-.06-.1-.13-.21-.18-.32-.02-.04-.04-.09-.06-.13,0,0,0,0,0,0-.05-.13-.09-.25-.13-.38-.08-.29-.15-.58-.2-.88-.01-.07-.02-.14-.03-.21,0-.03,0-.06-.01-.07-.02-.11-.03-.22-.05-.34,0,0-.02-.15-.03-.19-.03-.28-.04-.57-.08-.85-.04-.27-.08-.53-.28-.74-.19-.19-.51-.31-.76-.22C.03,2.18.05,3.23.01,3.96c-.04.67.04,1.36.15,2.02.23,1.29,1.07,2.37,2.26,2.92.72.33,1.46.46,2.24.27.2-.05.39-.12.58-.2,0,.41.01.82.01,1.22,0,.82.02,1.66-.04,2.48,0,.03,0,.06,0,.1,0,.01,0,.02,0,.03-.09.37-.18.68-.38,1-.25.42-.67.79-1.22.6-.73-.24-1.16-.8-1.36-1.52-.12-.46-.21-.93-.27-1.4-.07-.56.04-1.26-.31-1.73-.27-.37-.78-.5-1.14-.15-.42.42-.44,1.02-.47,1.58-.03.55-.02,1.1.05,1.65.14,1.07.45,2.12,1.27,2.87.79.72,1.87,1.19,2.95,1.03,1.11-.17,1.94-.81,2.52-1.75.66-1.05.74-2.2.75-3.4.01-1.2,0-2.41-.03-3.61,0-.59-.02-1.18-.03-1.77Zm-4.58.31s.05.03.05.03c0,0-.02-.01-.05-.03Zm.81.39s-.05,0-.05,0c0,0,.02,0,.05,0Zm.08.02s.01,0,0,0h0Zm.54-.15s.04-.02.07-.04c-.02.02-.05.04-.07.04Z"/><path class="cls-2" d="m18.89,9.18c.91.21,1.77,0,2.56-.47.53-.31.92-.74,1.23-1.27.2-.34.48-1.22.49-1.56s-.08-.88-.16-1.28-.33-.9-.51-1.24c-.36-.64-.86-1.24-1.54-1.54-.93-.42-1.85-.43-2.78-.01-.73.33-1.38.88-1.8,1.56-.88,1.42-.66,3.32.43,4.55.52.59,1.31,1.08,2.08,1.26Zm-.41-2.93s.03.03.02.04c0,0-.01-.02-.02-.04Zm-.02-.02c-.07-.08-.04-.04,0,0h0Zm1.85-2.36s0,0,0,0h0Zm-.17-.08s-.01,0-.02,0c0,0,.01,0,.02,0Zm-1.95,1.29s0,.14-.01.13c-.01,0,0-.07.01-.13Zm1.75,1.77s-.12.05-.2.06c-.11.01-.21,0-.23,0-.04,0-.07-.02-.08-.02-.06-.02-.12-.04-.18-.06-.04-.01-.12-.06-.14-.07-.06-.03-.12-.07-.19-.11-.01,0-.07-.05-.11-.08-.02-.02-.05-.04-.06-.05-.05-.05-.11-.1-.16-.15-.04-.04-.08-.08-.12-.13,0,0,0,0,0,0-.05-.08-.15-.25-.16-.28,0,0,0,0,0,0-.02-.08-.05-.16-.07-.24-.03-.11-.04-.22-.06-.32.08.31.01.04.01-.09,0-.06,0-.12,0-.18,0-.04,0-.05,0-.06.03-.11.07-.24.08-.27,0-.01.02-.06.03-.1,0,0,0,0,.01-.01.04-.06.07-.12.1-.18,0-.01.02-.04.03-.06.06-.07.13-.14.19-.2.04-.04.09-.08.13-.12,0,0,.01-.01.02-.02,0,0,.01,0,.02-.01.12-.08.24-.16.37-.23.02-.01.05-.03.08-.05.01,0,.03,0,.07-.02.06-.02.12-.04.18-.06,0,0,.08-.02.13-.03.03,0,.05,0,.07,0,.04,0,.07,0,.11,0,.08.01.2.03.3.06.01,0,.03.02.06.04.06.04.12.07.19.11,0,0,0,0,0,0,.06.06.11.11.17.17.09.09.18.19.27.28.04.04.18.35.17.91,0,0-.01.11-.02.16s-.02.1-.02.11c-.03.12-.06.24-.1.35,0,.01,0,.02-.01.04,0,.02,0,.02-.01.03-.01.02-.02.04-.03.07-.08.16-.17.3-.27.45,0,0,0,.01-.01.02-.02.02-.32.24-.19.15-.04.03-.09.05-.13.08-.05.03-.11.05-.16.08l-.07.03"/><path class="cls-2" d="m13.09,1.58c-1.36-.41-2.89.01-3.79,1.12-.87,1.07-1.26,2.45-.82,3.8.42,1.3,1.53,2.3,2.87,2.55.78.15,1.47.12,2.2-.2.3-.13.6-.31.82-.56.19-.23.34-.46.34-.76,0-.35-.22-.64-.55-.76-.33-.12-.64.03-.93.18-.01,0-.03.01-.04.02,0,0-.02.01-.04.02,0,0-.02,0-.02.01.01,0,.01,0,.02-.01,0,0-.02,0-.02,0-.11.03-.21.06-.32.08-.01,0-.01,0-.02,0-.04,0-.08,0-.11,0-.08,0-.15,0-.23,0-.02,0-.04,0-.05,0,0,0,0,0,0,0-.12-.02-.23-.05-.35-.08-.09-.02-.18-.05-.26-.08,0,0-.03,0-.05-.02,0,0-.01,0-.02-.01-.07-.04-.14-.07-.2-.11-.04-.02-.07-.05-.11-.07,0,0-.01,0-.02-.01-.16-.15-.31-.28-.46-.44,0,0,0,0,0,0-.02-.03-.04-.07-.05-.07-.03-.05-.06-.1-.08-.15,0,0,0,0,0,0,0-.03-.04-.14-.09-.26,1.21.02,2.43,0,3.64-.06.12,0,.24-.05.34-.12.21-.08.4-.23.55-.44.49-.68,0-1.71-.43-2.3-.45-.6-.98-1.05-1.71-1.27Zm-1.41,5.32s-.04-.02-.04-.02c0,0,.02,0,.04.02Zm-.74-.6s-.01-.01-.02-.03c.01.02.02.03.02.03Zm-.04-.05s-.03-.03,0,0h0Zm.62-2.37s-.02,0-.02,0c0,0,0,0,.02,0Zm-.19.1s-.07.07-.08.07c.01-.02.04-.05.08-.07Zm-.4.47s.01-.02.02-.04c.02-.04.05-.07.07-.1,0,0,0,0,0,0,0,0,0,0,0,0,0-.01.02-.02.02-.03.06-.09.05-.05.02,0,.05-.06.12-.15.14-.17.03-.03.06-.06.09-.08.03-.03.04-.04.05-.05.06-.03.13-.06.18-.09.04-.01.12-.04.13-.04.06-.02.12-.03.17-.04.04-.01.17,0,.02,0-.17,0,.15,0,.19,0,0,0,.04,0,.09,0,.01,0,.03,0,.05.01.11.02.22.06.33.09.03.01.05.03.06.03.01,0,.04.03.07.05-.04-.04-.07-.08.01,0h0s.04.03.05.03c-.01,0-.03-.01-.04-.02.04.04.08.08.11.12.01.01.06.07.08.1,0,0,0,0,0,.01.04.05.07.11.1.16.01.02.02.04.03.06-.69.02-1.39.03-2.08.02Z"/><path class="cls-2" d="m11.08,4.26s-.04.03-.05.04c0,0,0,0,0,0,.02,0,.04-.02.05-.04Z"/><path class="cls-2" d="m13.2,6.97s0,0-.05.02c0,0,0,0,0,0,.01,0,.03-.01.04-.02Z"/><path class="cls-2" d="m12.67,3.95s0,0-.01,0c0,0,.01,0,.02.01,0,0,0,0,0,0Z"/><path class="cls-2" d="m21.24,17.47s0,0-.05.02c0,0,0,0,0,0,.01,0,.03-.01.04-.02Z"/><path class="cls-2" d="m21.13,12.08c-1.36-.41-2.89.01-3.79,1.12-.87,1.07-1.26,2.45-.82,3.8.42,1.3,1.53,2.3,2.87,2.55.78.15,1.47.12,2.2-.2.3-.13.6-.31.82-.56.19-.23.34-.46.34-.76,0-.35-.22-.64-.55-.76-.33-.12-.64.03-.93.18-.01,0-.03.01-.04.02,0,0-.02.01-.04.02,0,0-.02,0-.02.01.01,0,.01,0,.02-.01,0,0-.02,0-.02,0-.11.03-.21.06-.32.08-.01,0-.01,0-.02,0-.04,0-.08,0-.11,0-.08,0-.15,0-.23,0-.02,0-.04,0-.05,0,0,0,0,0,0,0-.12-.02-.23-.05-.35-.08-.09-.02-.18-.05-.26-.08,0,0-.03,0-.05-.02,0,0-.01,0-.02-.01-.07-.04-.14-.07-.2-.11-.04-.02-.07-.05-.11-.07,0,0-.01,0-.02-.01-.16-.15-.31-.28-.46-.44,0,0,0,0,0,0-.02-.03-.04-.07-.05-.07-.03-.05-.06-.1-.08-.15,0,0,0,0,0,0,0-.03-.04-.14-.09-.26,1.21.02,2.43,0,3.64-.06.12,0,.24-.05.34-.12.21-.08.4-.23.55-.44.49-.68,0-1.71-.43-2.3-.45-.6-.98-1.05-1.71-1.27Zm-1.41,5.32s-.04-.02-.04-.02c0,0,.02,0,.04.02Zm-.74-.6s-.01-.01-.02-.03c.01.02.02.03.02.03Zm-.04-.05s-.03-.03,0,0h0Zm.62-2.37s-.02,0-.02,0c0,0,0,0,.02,0Zm-.59.57s.01-.02.02-.04c.02-.04.05-.07.07-.1,0,0,0,0,0,0,0,0,0,0,0,0,0-.01.02-.02.02-.03.06-.09.18-.21.2-.23.03-.03.09-.07.1-.07.06-.03.13-.06.18-.09.04-.01.12-.04.13-.04.06-.02.12-.03.17-.04.04-.01.17-.02.21-.02,0,0,.04,0,.09,0,.01,0,.03,0,.05.01.11.02.22.06.33.09.03.01.05.03.06.03.01,0,.04.03.07.05-.04-.04-.07-.08.01,0h0s.04.03.05.03c-.01,0-.03-.01-.04-.02.04.04.08.08.11.12.01.01.06.07.08.1,0,0,0,0,0,.01.04.05.07.11.1.16.01.02.02.04.03.06-.69.02-1.39.03-2.08.02Z"/><path class="cls-2" d="m20.72,14.45s0,0-.01,0c0,0,.01,0,.02.01,0,0,0,0,0,0Z"/></svg>